<?xml version="1.0" standalone="no"?>
<!DOCTYPE svg PUBLIC "-//W3C//DTD SVG 20010904//EN"
 "http://www.w3.org/TR/2001/REC-SVG-20010904/DTD/svg10.dtd">
<svg version="1.0" xmlns="http://www.w3.org/2000/svg"
 width="300.000000pt" height="300.000000pt" viewBox="0 0 300.000000 300.000000"
 preserveAspectRatio="xMidYMid meet">
<metadata>
Created by potrace 1.14, written by Peter Selinger 2001-2017
</metadata>
<g transform="translate(0.000000,300.000000) scale(0.100000,-0.100000)"
fill="#000000" stroke="none">
<path d="M634 2805 c80 -196 562 -1305 567 -1305 4 0 44 51 90 113 46 61 116
157 157 211 l73 99 -84 86 c-47 47 -130 132 -185 189 -56 56 -98 102 -94 103
4 0 14 2 23 4 8 1 91 6 185 9 176 8 238 11 438 21 95 6 117 4 110 -6 -4 -7
-160 -215 -345 -462 l-337 -448 114 -237 c168 -345 157 -325 166 -308 10 17
788 1955 788 1961 0 5 -14 -1 -300 -133 -107 -49 -222 -102 -255 -117 -33 -15
-94 -43 -135 -62 -41 -20 -93 -43 -115 -53 -55 -24 -142 -64 -255 -117 l-95
-44 -264 268 c-216 220 -260 261 -247 228z"/>
<path d="M909 652 l-36 -3 -58 -135 c-32 -74 -61 -132 -65 -127 -3 4 -31 65
-60 136 l-55 127 -42 0 -42 0 25 -57 c14 -32 36 -80 48 -108 12 -27 47 -105
76 -173 29 -67 54 -121 56 -120 1 2 21 46 44 98 23 52 50 113 60 135 53 120
92 215 88 222 -1 4 -19 7 -39 5z"/>
<path d="M1017 652 c-9 -2 -17 -9 -18 -15 -1 -15 -1 -430 0 -439 1 -5 64 -8
141 -8 l140 0 -3 33 -3 32 -74 2 c-146 3 -129 -6 -127 71 l2 67 70 2 c39 0 76
2 83 2 7 1 12 15 12 34 l0 33 -72 -1 c-40 -1 -78 0 -84 3 -15 5 -15 111 0 113
6 1 52 2 101 3 l90 1 2 33 c1 18 -4 32 -10 33 -55 2 -237 3 -250 1z"/>
<path d="M1405 650 l-50 -5 0 -227 -1 -228 38 0 38 0 0 74 c0 56 4 75 15 80
26 9 40 -2 96 -79 53 -73 55 -74 98 -75 l43 0 -28 37 c-15 21 -43 58 -61 82
l-34 45 24 14 c52 32 80 125 57 184 -34 86 -97 112 -235 98z m153 -96 c39 -44
24 -114 -29 -133 -17 -6 -47 -11 -65 -11 l-34 0 0 84 c0 58 4 86 13 89 29 11
93 -5 115 -29z"/>
<path d="M1690 649 c0 -5 45 -111 99 -236 l100 -228 19 45 c11 25 52 119 92
210 101 232 96 207 50 212 l-40 4 -57 -134 c-31 -73 -59 -135 -63 -137 -3 -2
-30 54 -59 123 -30 70 -57 130 -60 134 -9 10 -81 17 -81 7z"/>
<path d="M2168 652 l-38 -3 0 -230 0 -229 140 0 140 0 0 34 0 34 -77 0 c-144
0 -129 -8 -128 70 l0 67 75 2 c41 1 80 2 86 2 9 1 11 27 5 62 -1 3 -37 5 -81
4 -44 0 -81 2 -81 5 -6 28 -2 110 6 113 5 2 52 3 103 2 l92 -1 0 33 c0 29 -3
33 -27 33 -16 1 -62 2 -103 3 -41 1 -92 1 -112 -1z"/>
</g>
</svg>
